HIERARCHY
ROOT Hips
{
	OFFSET 0.000000 83.214638 0.000000
	CHANNELS 6 Xposition Yposition Zposition Xrotation Yrotation Zrotation
	JOINT Pelvis
	{
		OFFSET 0.000000 0.000000 0.000000
		CHANNELS 3 Xrotation Yrotation Zrotation
		JOINT LeftUpLeg
		{
			OFFSET 8.479700 -4.795502 -0.379100
			CHANNELS 3 Xrotation Yrotation Zrotation
			JOINT LeftLeg
			{
				OFFSET 0.024144 -32.555107 0.112900
				CHANNELS 3 Xrotation Yrotation Zrotation
				JOINT LeftFoot
				{
					OFFSET -0.024144 -32.638630 -3.012600
					CHANNELS 3 Xrotation Yrotation Zrotation
					JOINT LeftToeBase
					{
						OFFSET 0.970200 -13.225400 11.864200
						CHANNELS 3 Xrotation Yrotation Zrotation
						End Site
						{
							OFFSET 0.000000 12.319262 0.000000
						}
					}
					JOINT LFootTongue
					{
						OFFSET 1.142400 -1.059800 6.665200
						CHANNELS 3 Xrotation Yrotation Zrotation
						End Site
						{
							OFFSET 0.000000 12.319262 0.000000
						}
					}
				}
				JOINT LeftPantLeg
				{
					OFFSET 0.918482 -16.533964 -2.284700
					CHANNELS 3 Xrotation Yrotation Zrotation
					End Site
					{
						OFFSET 0.350399 24.744368 0.000000
					}
				}
			}
		}
		JOINT RightUpLeg
		{
			OFFSET -8.479700 -4.795502 -0.379100
			CHANNELS 3 Xrotation Yrotation Zrotation
			JOINT RightLeg
			{
				OFFSET -0.023144 -32.555092 0.112900
				CHANNELS 3 Xrotation Yrotation Zrotation
				JOINT RightFoot
				{
					OFFSET 0.023144 -32.638641 -3.012700
					CHANNELS 3 Xrotation Yrotation Zrotation
					JOINT RightToeBase
					{
						OFFSET -0.970200 -13.225400 11.864200
						CHANNELS 3 Xrotation Yrotation Zrotation
						End Site
						{
							OFFSET 0.000000 12.319244 0.000000
						}
					}
					JOINT RFootTongue
					{
						OFFSET -1.142200 -1.059800 6.665200
						CHANNELS 3 Xrotation Yrotation Zrotation
						End Site
						{
							OFFSET 0.000000 12.319243 0.000000
						}
					}
				}
				JOINT RightPantLeg
				{
					OFFSET -0.919482 -16.533978 -2.284800
					CHANNELS 3 Xrotation Yrotation Zrotation
					End Site
					{
						OFFSET -0.350400 24.744419 0.000000
					}
				}
			}
		}
	}
	JOINT Spine
	{
		OFFSET 0.000000 7.722000 1.166200
		CHANNELS 3 Xrotation Yrotation Zrotation
		JOINT Spine1
		{
			OFFSET 0.000000 12.024101 0.248800
			CHANNELS 3 Xrotation Yrotation Zrotation
			JOINT Spine2
			{
				OFFSET 0.000000 11.502998 -0.491200
				CHANNELS 3 Xrotation Yrotation Zrotation
				JOINT Neck
				{
					OFFSET 0.000000 18.430702 -3.123100
					CHANNELS 3 Xrotation Yrotation Zrotation
					JOINT Head
					{
						OFFSET 0.000000 9.051102 1.034000
						CHANNELS 3 Xrotation Yrotation Zrotation
						JOINT HairB
						{
							OFFSET 0.208400 24.786102 24.822300
							CHANNELS 3 Xrotation Yrotation Zrotation
							End Site
							{
								OFFSET 0.000000 32.263779 0.000000
							}
						}
						JOINT HairA
						{
							OFFSET -7.081100 24.428299 23.196600
							CHANNELS 3 Xrotation Yrotation Zrotation
							End Site
							{
								OFFSET 0.000000 32.263779 0.000000
							}
						}
						JOINT Hat
						{
							OFFSET 16.728800 15.048294 -15.439601
							CHANNELS 3 Xrotation Yrotation Zrotation
							End Site
							{
								OFFSET 0.000000 32.263779 0.000000
							}
						}
					}
				}
				JOINT LeftShoulder
				{
					OFFSET 6.197800 13.665199 -4.064700
					CHANNELS 3 Xrotation Yrotation Zrotation
					JOINT LeftArm
					{
						OFFSET 7.778100 -0.187103 -1.709300
						CHANNELS 3 Xrotation Yrotation Zrotation
						JOINT LeftForeArm
						{
							OFFSET 22.049376 0.000000 0.000000
							CHANNELS 3 Xrotation Yrotation Zrotation
							JOINT LeftHand
							{
								OFFSET 23.009392 0.000000 0.000000
								CHANNELS 3 Xrotation Yrotation Zrotation
								JOINT LeftHandThumb1
								{
									OFFSET 3.507191 -2.063065 3.133727
									CHANNELS 3 Xrotation Yrotation Zrotation
									JOINT LeftHandThumb2
									{
										OFFSET 3.101337 -1.790558 1.790558
										CHANNELS 3 Xrotation Yrotation Zrotation
										JOINT LeftHandThumb3
										{
											OFFSET 3.058640 -1.765907 1.765906
											CHANNELS 3 Xrotation Yrotation Zrotation
											End Site
											{
												OFFSET -0.415260 3.926476 -0.049563
											}
										}
									}
								}
								JOINT LeftHandIndex1
								{
									OFFSET 11.334419 -0.901459 3.706815
									CHANNELS 3 Xrotation Yrotation Zrotation
									JOINT LeftHandIndex2
									{
										OFFSET 3.283112 0.000000 0.000000
										CHANNELS 3 Xrotation Yrotation Zrotation
										JOINT LeftHandIndex3
										{
											OFFSET 3.323853 0.000000 0.000000
											CHANNELS 3 Xrotation Yrotation Zrotation
											End Site
											{
												OFFSET -1.135597 3.097809 0.402452
											}
										}
									}
								}
								JOINT LeftHandMiddle1
								{
									OFFSET 11.335861 0.000000 0.000000
									CHANNELS 3 Xrotation Yrotation Zrotation
									JOINT LeftHandMiddle2
									{
										OFFSET 3.410492 0.000000 0.000000
										CHANNELS 3 Xrotation Yrotation Zrotation
										JOINT LeftHandMiddle3
										{
											OFFSET 3.312172 0.000000 0.000000
											CHANNELS 3 Xrotation Yrotation Zrotation
											End Site
											{
												OFFSET -1.150200 3.080154 0.400270
											}
										}
									}
								}
								JOINT LeftHandRing1
								{
									OFFSET 11.514786 -0.013176 -3.003090
									CHANNELS 3 Xrotation Yrotation Zrotation
									JOINT LeftHandRing2
									{
										OFFSET 3.053307 0.000000 0.000000
										CHANNELS 3 Xrotation Yrotation Zrotation
										JOINT LeftHandRing3
										{
											OFFSET 3.295807 0.000000 0.000000
											CHANNELS 3 Xrotation Yrotation Zrotation
											End Site
											{
												OFFSET -1.281006 3.013344 0.375733
											}
										}
									}
								}
								JOINT LeftHandPinky1
								{
									OFFSET 10.518692 -0.960396 -5.730441
									CHANNELS 3 Xrotation Yrotation Zrotation
									JOINT LeftHandPinky2
									{
										OFFSET 2.861649 0.000000 0.000000
										CHANNELS 3 Xrotation Yrotation Zrotation
										JOINT LeftHandPinky3
										{
											OFFSET 2.863380 0.000000 0.000000
											CHANNELS 3 Xrotation Yrotation Zrotation
											End Site
											{
												OFFSET -0.843597 2.711159 0.369971
											}
										}
									}
								}
							}
							JOINT LSleeve
							{
								OFFSET 6.676277 -0.344902 -1.011730
								CHANNELS 3 Xrotation Yrotation Zrotation
								End Site
								{
									OFFSET 0.000000 14.885353 0.000000
								}
							}
						}
					}
				}
				JOINT RightShoulder
				{
					OFFSET -6.197800 13.665199 -4.064700
					CHANNELS 3 Xrotation Yrotation Zrotation
					JOINT RightArm
					{
						OFFSET -7.778100 -0.187103 -1.709300
						CHANNELS 3 Xrotation Yrotation Zrotation
						JOINT RightForeArm
						{
							OFFSET -22.049376 0.000000 0.000000
							CHANNELS 3 Xrotation Yrotation Zrotation
							JOINT RightHand
							{
								OFFSET -23.009392 0.000000 0.000000
								CHANNELS 3 Xrotation Yrotation Zrotation
								JOINT RightHandThumb1
								{
									OFFSET -3.507191 -2.063065 3.133727
									CHANNELS 3 Xrotation Yrotation Zrotation
									JOINT RightHandThumb2
									{
										OFFSET -3.101337 -1.790558 1.790558
										CHANNELS 3 Xrotation Yrotation Zrotation
										JOINT RightHandThumb3
										{
											OFFSET -3.058640 -1.765907 1.765906
											CHANNELS 3 Xrotation Yrotation Zrotation
											End Site
											{
												OFFSET 0.415260 3.926476 -0.049563
											}
										}
									}
								}
								JOINT RightHandIndex1
								{
									OFFSET -11.334419 -0.901459 3.706815
									CHANNELS 3 Xrotation Yrotation Zrotation
									JOINT RightHandIndex2
									{
										OFFSET -3.283112 0.000000 0.000000
										CHANNELS 3 Xrotation Yrotation Zrotation
										JOINT RightHandIndex3
										{
											OFFSET -3.323853 0.000000 0.000000
											CHANNELS 3 Xrotation Yrotation Zrotation
											End Site
											{
												OFFSET 1.135597 3.097809 0.402452
											}
										}
									}
								}
								JOINT RightHandMiddle1
								{
									OFFSET -11.335861 0.000000 0.000000
									CHANNELS 3 Xrotation Yrotation Zrotation
									JOINT RightHandMiddle2
									{
										OFFSET -3.410492 0.000000 0.000000
										CHANNELS 3 Xrotation Yrotation Zrotation
										JOINT RightHandMiddle3
										{
											OFFSET -3.312172 0.000000 0.000000
											CHANNELS 3 Xrotation Yrotation Zrotation
											End Site
											{
												OFFSET 1.150200 3.080154 0.400270
											}
										}
									}
								}
								JOINT RightHandRing1
								{
									OFFSET -11.514786 -0.013176 -3.003090
									CHANNELS 3 Xrotation Yrotation Zrotation
									JOINT RightHandRing2
									{
										OFFSET -3.053307 0.000000 0.000000
										CHANNELS 3 Xrotation Yrotation Zrotation
										JOINT RightHandRing3
										{
											OFFSET -3.295807 0.000000 0.000000
											CHANNELS 3 Xrotation Yrotation Zrotation
											End Site
											{
												OFFSET 1.281006 3.013344 0.375733
											}
										}
									}
								}
								JOINT RightHandPinky1
								{
									OFFSET -10.518692 -0.960396 -5.730441
									CHANNELS 3 Xrotation Yrotation Zrotation
									JOINT RightHandPinky2
									{
										OFFSET -2.861649 0.000000 0.000000
										CHANNELS 3 Xrotation Yrotation Zrotation
										JOINT RightHandPinky3
										{
											OFFSET -2.863380 0.000000 0.000000
											CHANNELS 3 Xrotation Yrotation Zrotation
											End Site
											{
												OFFSET 0.843597 2.711159 0.369971
											}
										}
									}
								}
							}
							JOINT RSleeve
							{
								OFFSET -6.676277 -0.344902 -1.011730
								CHANNELS 3 Xrotation Yrotation Zrotation
								End Site
								{
									OFFSET 0.000000 14.885353 0.000000
								}
							}
						}
					}
				}
				JOINT Backpack
				{
					OFFSET 0.000000 -2.471497 36.677502
					CHANNELS 3 Xrotation Yrotation Zrotation
					End Site
					{
						OFFSET 0.000000 20.427315 0.000000
					}
				}
				JOINT Hood
				{
					OFFSET 0.000000 18.754097 -10.431000
					CHANNELS 3 Xrotation Yrotation Zrotation
					JOINT Hood1
					{
						OFFSET 0.000000 -5.011002 -7.685901
						CHANNELS 3 Xrotation Yrotation Zrotation
						End Site
						{
							OFFSET 0.000000 9.175140 0.000000
						}
					}
				}
				JOINT LHoodieString
				{
					OFFSET 5.250500 16.397697 3.089900
					CHANNELS 3 Xrotation Yrotation Zrotation
					JOINT LHoodieString1
					{
						OFFSET 0.257700 -6.364304 3.694600
						CHANNELS 3 Xrotation Yrotation Zrotation
						JOINT LHoodieString2
						{
							OFFSET 0.000000 -9.643799 2.679100
							CHANNELS 3 Xrotation Yrotation Zrotation
							End Site
							{
								OFFSET 0.000000 10.009018 0.000000
							}
						}
					}
				}
				JOINT RHoodieString
				{
					OFFSET -5.250500 16.397697 3.089900
					CHANNELS 3 Xrotation Yrotation Zrotation
					JOINT RHoodieString1
					{
						OFFSET -0.257700 -6.364304 3.694600
						CHANNELS 3 Xrotation Yrotation Zrotation
						JOINT RHoodieString2
						{
							OFFSET 0.000000 -9.643799 2.679100
							CHANNELS 3 Xrotation Yrotation Zrotation
							End Site
							{
								OFFSET 0.000000 10.009018 0.000000
							}
						}
					}
				}
			}
			JOINT LBackpack_Strap
			{
				OFFSET 15.223200 -7.719803 -6.610900
				CHANNELS 3 Xrotation Yrotation Zrotation
				End Site
				{
					OFFSET 0.000000 16.040596 0.000000
				}
			}
			JOINT RBackpack_Strap
			{
				OFFSET -15.223000 -7.719803 -6.610900
				CHANNELS 3 Xrotation Yrotation Zrotation
				End Site
				{
					OFFSET 0.000000 16.040596 0.000000
				}
			}
		}
	}
	JOINT BoyFacialAnim_Joint
	{
		OFFSET 1.000000 -82.208099 -1.550900
		CHANNELS 3 Xrotation Yrotation Zrotation
		End Site
		{
			OFFSET 0.000000 30.012791 0.000000
		}
	}
}
MOTION
Frames: 4
Frame Time: 0.033333
-116.746277 76.543610 5.772247 -22.007230 -36.723916 -14.800376 -0.000002 -0.000002 -0.000000 -26.875381 20.636942 27.154452 60.823203 1.363653 1.696054 -7.388952 2.897890 -9.113293 0.000000 -0.000000 0.000000 0.000000 -0.000000 0.000000 0.000001 0.000000 0.000000 -8.100473 -2.763393 -11.681060 43.851303 5.508722 0.516793 -16.853423 -12.105499 8.459800 -0.000000 0.000002 0.000000 -0.000000 0.000002 0.000000 0.000000 0.000003 0.000000 16.666073 1.231405 -0.620907 10.507363 -0.334353 -3.460631 14.250652 -2.171034 -1.221597 0.756537 6.462440 2.583572 -7.478011 20.116666 11.640374 -0.000000 -0.000001 -0.000002 -0.000000 -0.000001 -0.000002 -0.000000 -0.000001 -0.000002 -37.577112 -5.035189 2.033068 -43.690084 -10.598110 -64.885991 -0.000051 -60.904264 -0.000046 -114.441459 -2.222394 33.766085 3.640561 5.607090 2.346711 18.081056 -1.747967 7.251273 -0.000000 0.000001 -0.000001 -0.048624 4.118547 -36.174587 3.048854 5.138443 -61.342953 0.000000 -0.000001 -0.000002 1.102855 6.000388 -51.254925 3.496560 5.357930 -66.234571 0.000003 -0.000000 0.000000 -0.605286 5.349403 -59.936372 4.265115 5.632746 -74.247086 0.000003 0.000003 -0.000000 -5.250423 4.400422 -69.329207 3.529197 5.372141 -66.583573 -0.000001 -0.000001 -0.000004 0.000001 0.000004 0.000000 -40.835341 -9.079794 -8.714108 -37.826366 55.347103 90.981712 -0.000143 96.968257 0.000100 -57.354779 -15.721219 -21.594647 8.555097 -5.319168 11.061560 21.724257 -17.881191 -19.074791 0.000001 -0.000001 0.000001 -0.933489 1.602968 12.778257 0.881727 -2.728744 35.808179 -0.000001 -0.000000 0.000003 3.502466 -7.237180 52.064340 6.297081 -4.359476 110.638116 0.000000 0.000001 -0.000000 -3.333560 -2.559738 56.641625 5.432057 -4.592391 99.588010 -0.000000 -0.000001 0.000005 -4.065383 -3.213147 64.198574 4.016945 -4.613067 82.089817 -0.000000 -0.000001 -0.000005 0.000000 -0.000002 0.000001 0.000000 0.000001 -0.000001 0.000000 0.000001 -0.000001 0.000000 0.000001 -0.000001 0.000000 0.000001 -0.000001 0.000000 0.000001 -0.000000 -0.000002 -0.000001 -0.000000 0.000000 0.000001 -0.000001 0.000000 0.000001 -0.000000 -0.000002 -0.000001 -0.000000 0.000001 0.000001 0.000000 0.000001 0.000001 0.000000 -0.000002 -0.000002 -0.000000 
-118.192520 77.354317 5.722343 -21.155881 -36.596720 -14.077742 0.000000 0.000000 0.000000 -26.315587 23.824403 26.607260 52.715315 3.609044 0.550282 -9.489276 3.369845 -13.597160 -0.000001 -0.000000 0.000000 -0.000001 -0.000000 0.000001 0.000001 0.000000 -0.000001 -6.238656 -1.730608 -10.334448 41.325216 4.049194 1.234741 -16.736830 -12.740564 7.611437 -0.000000 0.000002 -0.000000 -0.000000 0.000002 -0.000000 0.000001 0.000002 -0.000001 16.188359 0.944111 -0.714989 10.808424 -0.351419 -3.272940 14.375373 -2.093511 -1.139075 0.853390 6.477865 2.509538 -7.595310 19.997604 11.449960 0.000001 0.000000 -0.000001 0.000001 0.000000 -0.000001 0.000001 0.000000 -0.000001 -37.580780 -5.127788 2.072882 -44.149260 -10.464360 -64.941603 0.000015 -60.176630 0.000009 -114.659287 -1.966711 33.123190 3.646986 5.633111 2.354664 18.146197 -1.752070 7.282945 0.000001 -0.000003 -0.000001 0.008299 4.237008 -36.855930 3.048232 5.138118 -61.336055 -0.000001 0.000001 -0.000003 0.974552 5.909314 -51.565206 3.496074 5.357718 -66.229346 0.000001 -0.000000 0.000002 -0.436454 5.486874 -60.435283 4.266539 5.633150 -74.261560 0.000002 0.000001 -0.000002 -5.129336 4.532592 -69.804240 3.537268 5.375625 -66.669955 0.000001 0.000003 -0.000001 -0.000002 0.000002 -0.000002 -40.805172 -9.070622 -8.577381 -38.465392 55.171891 91.473507 0.000260 96.518489 -0.000263 -56.744850 -16.019562 -21.352800 8.575742 -5.369381 11.066064 21.672539 -17.781501 -19.295371 -0.000004 -0.000000 0.000003 -0.936102 1.613458 12.781762 0.886234 -2.735005 35.903053 -0.000000 -0.000001 0.000005 3.456452 -7.204320 52.002328 6.296824 -4.359576 110.634892 0.000001 0.000000 0.000003 -3.338631 -2.563597 56.693999 5.435060 -4.591873 99.625611 0.000000 -0.000001 0.000000 -4.087372 -3.219300 64.313546 4.016124 -4.612968 82.079565 0.000001 0.000000 0.000002 0.000000 -0.000001 -0.000003 0.000002 -0.000002 0.000001 0.000002 -0.000002 0.000001 0.000002 -0.000002 0.000001 0.000002 -0.000002 0.000001 0.000002 -0.000002 0.000000 0.000002 0.000001 -0.000001 0.000002 -0.000002 0.000001 0.000002 -0.000002 0.000000 0.000002 0.000001 -0.000001 -0.000000 -0.000003 0.000000 -0.000000 -0.000003 0.000000 0.000000 0.000000 0.000000 
-119.546021 77.943230 5.827606 -20.572458 -36.631428 -13.461870 -0.000000 -0.000001 -0.000000 -24.816683 26.971282 25.701382 44.048235 6.120819 0.180050 -10.855658 3.678551 -16.729616 -0.000000 -0.000001 -0.000000 -0.000000 -0.000001 0.000000 -0.000000 -0.000000 -0.000000 -4.645401 -0.787771 -9.542047 39.476854 2.252729 2.020870 -16.891095 -12.425528 6.961026 -0.000000 -0.000000 -0.000000 -0.000000 -0.000000 -0.000000 0.000000 0.000002 -0.000000 15.583358 0.747040 -0.851478 11.155432 -0.354877 -3.111375 14.546717 -2.010098 -1.080219 1.094973 6.564576 2.284710 -7.661428 19.970141 11.267921 0.000001 0.000000 -0.000000 0.000001 0.000000 -0.000000 0.000001 0.000000 -0.000000 -37.576378 -5.089697 2.217804 -44.333689 -10.301770 -64.983212 0.000049 -59.995507 0.000038 -114.939899 -1.812122 32.844822 3.658789 5.676513 2.365086 18.211216 -1.755731 7.314128 -0.000002 -0.000001 -0.000001 0.021692 4.265384 -37.034098 3.046970 5.137441 -61.321964 -0.000002 0.000000 -0.000002 0.859345 5.818740 -51.577620 3.506088 5.362113 -66.336635 0.000002 0.000000 0.000002 -0.263243 5.594387 -60.559326 4.264782 5.632656 -74.243849 0.000004 -0.000001 -0.000001 -5.029884 4.611983 -70.041534 3.542442 5.377846 -66.725020 -0.000002 0.000000 -0.000002 0.000000 -0.000002 0.000002 -40.727916 -8.958203 -8.176746 -38.662354 55.204628 91.416775 -0.000663 96.545318 0.000659 -56.420071 -16.436864 -21.591690 8.643809 -5.529653 11.079683 21.626180 -17.610364 -19.673163 -0.000002 -0.000001 0.000002 -0.929581 1.618103 12.697793 0.889648 -2.739662 35.974275 -0.000001 0.000000 0.000004 3.365069 -7.131638 52.043548 6.296596 -4.359650 110.631975 0.000001 0.000001 0.000002 -3.361398 -2.559843 56.775975 5.437984 -4.591379 99.662323 -0.000001 -0.000001 0.000004 -4.090498 -3.231662 64.408404 4.025067 -4.614211 82.191136 -0.000000 0.000000 0.000002 -0.000001 0.000001 0.000001 0.000001 -0.000001 -0.000000 0.000001 -0.000001 -0.000000 0.000001 -0.000001 -0.000000 0.000001 -0.000001 -0.000000 0.000001 -0.000001 0.000000 0.000002 -0.000001 0.000001 0.000001 -0.000001 -0.000000 0.000001 -0.000001 0.000000 0.000002 -0.000001 0.000001 0.000000 0.000000 -0.000000 0.000000 0.000000 -0.000000 -0.000000 -0.000001 -0.000000 
-120.793091 78.302338 6.006138 -20.064029 -36.719944 -12.859557 -0.000001 0.000003 0.000001 -25.163324 29.106312 24.527940 39.014549 7.815573 0.443096 -10.053583 2.585242 -10.197874 0.000000 -0.000000 -0.000000 0.000000 -0.000000 0.000000 0.000000 -0.000000 -0.000000 -3.451086 0.468172 -8.875270 38.522383 -0.670347 2.643515 -17.299961 -11.165226 6.884947 0.000000 -0.000002 0.000000 0.000000 -0.000002 0.000000 0.000001 -0.000000 0.000000 15.069595 0.584088 -1.005074 11.474647 -0.353142 -2.957409 14.681582 -1.921755 -1.031370 1.232080 6.664335 2.067020 -7.473203 20.273736 11.059178 0.000001 0.000000 0.000000 0.000001 0.000000 0.000000 0.000001 0.000000 0.000000 -37.560727 -4.872602 2.584255 -43.924345 -9.998945 -64.808735 0.000015 -61.146060 0.000016 -115.616716 -1.897739 33.217829 3.676304 5.738125 2.378010 18.276082 -1.758577 7.344537 -0.000001 -0.000002 0.000001 -0.111047 4.050630 -36.444749 3.026094 5.126016 -61.088481 -0.000004 -0.000001 -0.000002 0.758871 5.722861 -51.194795 3.495515 5.357475 -66.223417 0.000000 0.000001 0.000000 -0.181290 5.618300 -60.259112 4.241211 5.625978 -74.003351 -0.000001 -0.000002 -0.000003 -4.871272 4.596463 -69.621327 3.549909 5.380993 -66.804284 -0.000000 0.000002 -0.000003 -0.000002 0.000001 -0.000003 -40.606632 -8.775002 -7.536322 -38.581836 55.490072 91.095790 0.000596 97.531837 -0.000560 -56.237268 -17.261336 -22.771926 8.667433 -5.586002 11.084664 21.567369 -17.522632 -19.861157 0.000000 0.000001 0.000000 -0.930960 1.615202 12.719984 0.891993 -2.742851 36.022776 -0.000001 -0.000000 0.000000 3.278299 -7.063226 52.073010 6.296598 -4.359657 110.631730 0.000001 0.000001 -0.000002 -3.375607 -2.559107 56.838150 5.441491 -4.590790 99.705776 -0.000001 -0.000000 0.000007 -4.053751 -3.262179 64.495653 4.029178 -4.614746 82.241748 -0.000000 -0.000001 0.000002 -0.000002 0.000001 -0.000001 -0.000000 0.000000 -0.000001 -0.000000 0.000000 -0.000001 -0.000000 0.000000 -0.000001 -0.000000 0.000000 -0.000001 -0.000000 0.000000 -0.000000 0.000000 0.000002 -0.000001 -0.000000 0.000000 -0.000001 -0.000000 0.000000 -0.000000 0.000000 0.000002 -0.000001 0.000000 -0.000001 0.000000 0.000000 -0.000001 0.000000 -0.000001 0.000003 0.000001 
